<svg width="50" height="50" viewBox="0 0 50 50" fill="none" xmlns="http://www.w3.org/2000/svg">
<path d="M45 45L40.0869 41.2105L37.3176 38.9579L34.3895 36.5789L35.5925 40.2821H9.68454C7.08993 40.274 4.99338 38.4282 5.00002 36.1579V9.12C4.99603 6.85135 7.09182 5.00812 9.68454 5H40.3155C42.9082 5.00812 45.004 6.85135 45 9.12V45ZM34.1128 27.1221C33.0983 28.3127 31.6377 29.1533 29.9865 29.4968C30.665 30.2547 31.483 31.1116 31.4902 31.12C34.2502 31.171 36.8635 30.0352 38.4845 28.08C38.4015 24.0268 37.2765 20.0419 35.1931 16.4211C33.3588 15.1616 31.126 14.4266 28.7979 14.3158H28.7714L28.4514 14.6358C30.531 15.1245 32.4703 15.9895 34.1441 17.1747C32.0143 16.1503 29.6772 15.4982 27.2629 15.2547C25.7284 15.1056 24.1789 15.119 22.6481 15.2947C22.5399 15.2966 22.4321 15.3065 22.3257 15.3242H22.2584C20.4643 15.505 18.7138 15.9312 17.071 16.5874C16.2481 16.9179 15.7429 17.1579 15.7212 17.1663C15.6996 17.1747 15.7212 17.1663 15.7212 17.1516C17.4966 15.9298 19.5448 15.047 21.7338 14.56L21.4932 14.32H21.4788C19.1507 14.4311 16.9181 15.1661 15.0836 16.4253C12.9926 20.0437 11.8672 24.0301 11.7922 28.0842C13.393 30.0524 16.0099 31.1925 18.7696 31.1242C18.7696 31.1242 19.631 30.2063 20.3023 29.4632C18.6926 29.1092 17.2744 28.2754 16.2914 27.1053C16.3083 27.1158 16.5465 27.2568 16.9314 27.4421C16.9573 27.4687 16.9893 27.4902 17.0253 27.5053C17.0558 27.5237 17.088 27.5399 17.1215 27.5537C17.1596 27.5688 17.1958 27.5871 17.2298 27.6084C17.7666 27.8673 18.3238 28.0925 18.8972 28.2821C19.9873 28.6598 21.1148 28.9487 22.2656 29.1453C23.2731 29.3115 24.296 29.396 25.3212 29.3979C26.2825 29.3978 27.2417 29.3203 28.1868 29.1663C29.3249 28.9914 30.4365 28.7033 31.4999 28.3074C32.4184 27.9983 33.2947 27.6007 34.1128 27.1221ZM29.2093 26.2232C28.1625 26.303 27.1671 25.8124 26.7025 24.9878C26.238 24.1631 26.3997 23.1735 27.1097 22.4957C27.8196 21.8179 28.9323 21.591 29.9116 21.9243C30.8909 22.2576 31.5359 23.0827 31.5359 24.0021C31.589 25.1767 30.5489 26.1685 29.2069 26.2232H29.2093ZM20.8653 26.2232C19.5488 26.1228 18.5386 25.1584 18.5386 24.0021C18.5386 22.8458 19.5488 21.8815 20.8653 21.7811C21.4717 21.7827 33.4512 29.8812 33.8722 30.2632C34.3498 30.697 23.21 23.3977 23.1943 24C23.25 25.1766 22.2097 26.1708 20.8653 26.2232Z" fill="#E0E41E"/>
</svg>
