<svg width="50" height="50" viewBox="0 0 50 50" fill="none" xmlns="http://www.w3.org/2000/svg">
<path fill-rule="evenodd" clip-rule="evenodd" d="M3.53553 21.2132C1.58291 23.1658 1.58291 26.3316 3.53553 28.2842L21.2132 45.9619C23.1658 47.9145 26.3316 47.9145 28.2843 45.9619L45.9619 28.2842C47.9146 26.3316 47.9146 23.1658 45.9619 21.2132L28.2843 3.53551C26.3316 1.58289 23.1658 1.58289 21.2132 3.53551L3.53553 21.2132ZM11.753 13.0039L14.9748 9.78214L21.2188 15.1792C21.6057 15.0757 22.0122 15.0205 22.4317 15.0205C25.0155 15.0205 27.11 17.115 27.11 19.6987C27.11 19.8832 27.0993 20.0652 27.0785 20.2441L30.908 23.5541C31.354 23.4129 31.829 23.3367 32.3218 23.3367C34.9055 23.3367 37 25.4312 37 28.0149C37 30.5986 34.9055 32.6932 32.3218 32.6932C29.738 32.6932 27.6435 30.5986 27.6435 28.0149C27.6435 27.6173 27.6931 27.2312 27.7865 26.8626L24.7055 24.1995V31.1611C26.0355 31.9861 26.9213 33.4594 26.9213 35.1396C26.9213 37.7233 24.8268 39.8178 22.243 39.8178C19.6593 39.8178 17.5648 37.7233 17.5648 35.1396C17.5648 33.3734 18.5435 31.8358 19.9882 31.0396V23.6889C18.6477 22.8662 17.7535 21.3869 17.7535 19.6987C17.7535 19.233 17.8215 18.7833 17.9482 18.3588L11.753 13.0039Z" fill="#E0E41E"/>
</svg>
