<svg width="50" height="50" viewBox="0 0 50 50" fill="none" xmlns="http://www.w3.org/2000/svg">
<path d="M25.0542 4.16663C14.8603 4.16532 6.17045 11.5583 4.53833 21.6206C2.90621 31.683 8.81374 41.4437 18.4854 44.6645C19.5271 44.852 19.9 44.2125 19.9 43.6625C19.9 43.1687 19.8833 41.8604 19.8771 40.1208C14.0958 41.3708 12.875 37.3333 12.875 37.3333C12.4944 36.0769 11.6762 34.9986 10.5687 34.2937C8.69375 33.0041 10.7125 33.0333 10.7125 33.0333C12.0472 33.2163 13.222 34.0072 13.8937 35.175C14.4624 36.2088 15.4203 36.9728 16.5548 37.2971C17.6893 37.6214 18.9063 37.4792 19.9354 36.902C20.0321 35.8479 20.5011 34.8626 21.2583 34.1229C16.6458 33.6 11.7958 31.8166 11.7958 23.852C11.7702 21.792 12.5352 19.8006 13.9333 18.2875C13.3007 16.4944 13.3752 14.5276 14.1417 12.7875C14.1417 12.7875 15.8854 12.227 19.8542 14.9145C23.258 13.9812 26.8503 13.9812 30.2542 14.9145C34.225 12.225 35.9667 12.7875 35.9667 12.7875C36.7367 14.5267 36.8112 16.4949 36.175 18.2875C37.5782 19.8004 38.3426 21.7971 38.3083 23.8604C38.3083 31.8458 33.4542 33.6 28.825 34.1145C29.8236 35.1355 30.3357 36.5361 30.2312 37.9604C30.2312 40.7395 30.2062 42.9812 30.2062 43.6625C30.2062 44.2187 30.5771 44.8645 31.6375 44.6604C41.3051 41.434 47.2063 31.6728 45.5709 21.6131C43.9354 11.5534 35.246 4.16429 25.0542 4.16663Z" fill="#E0E41E"/>
</svg>
