<svg width="50" height="50" viewBox="0 0 50 50" fill="none" xmlns="http://www.w3.org/2000/svg">
<path d="M43.75 43.75H6.25V6.25H43.75V43.75ZM18.9583 35.9L16.1083 37.6583C16.5525 38.6332 17.2724 39.4566 18.1792 40.0271C19.1642 40.5916 20.2835 40.8795 21.4187 40.8604C22.0142 40.8563 22.6074 40.7864 23.1875 40.6521C24.4013 40.3535 25.4303 39.5518 26.0167 38.4479C26.601 37.0729 26.8165 35.5692 26.6417 34.0854C26.6417 33.8021 26.6417 33.5125 26.6417 33.2208C26.6521 31.0812 26.6417 28.9042 26.6417 26.7958C26.6417 25.7208 26.6417 24.6437 26.6417 23.5646V23.4771H23.125C23.125 24.9896 23.125 26.4986 23.125 28.0042C23.125 29.5187 23.125 31.0312 23.125 32.5479C23.125 32.9354 23.125 33.3146 23.125 33.6792C23.2296 34.719 23.1542 35.7691 22.9021 36.7833C22.5994 37.3674 21.9767 37.7137 21.3208 37.6625C21.0271 37.6617 20.735 37.6174 20.4542 37.5312C19.8899 37.2362 19.4351 36.7682 19.1562 36.1958L19.0875 36.0792C19.0229 35.9687 18.9792 35.8917 18.9583 35.8917V35.9ZM31.3521 35.4833L28.4917 37.1229C28.7259 37.6353 29.0489 38.1023 29.4458 38.5021C29.5437 38.6104 29.6542 38.7271 29.7562 38.8562C31.155 40.1072 32.983 40.7693 34.8583 40.7042C37.2852 40.9433 39.5781 39.5498 40.4833 37.2854V37.2687C40.7204 36.4365 40.7583 35.56 40.5937 34.7104L40.6646 34.8125C40.3563 32.8771 38.9542 31.5333 35.9729 30.3229C35.7417 30.2146 35.5021 30.1146 35.2687 30.0104C34.3417 29.6104 33.4667 29.2354 33.1625 28.5521C33.027 28.2006 33.0023 27.816 33.0917 27.45C33.3074 26.7169 34.0148 26.2415 34.775 26.3188C35.0071 26.3188 35.238 26.3524 35.4604 26.4187C36.146 26.6498 36.7007 27.162 36.9854 27.8271C38.6 26.7708 38.6 26.7708 39.7271 26.0688C39.4692 25.6286 39.1624 25.2191 38.8125 24.8479C37.743 23.7015 36.2086 23.1061 34.6458 23.2312H34.3958L33.2958 23.3708C32.2628 23.6027 31.3281 24.152 30.6229 24.9417C29.7939 25.9784 29.4206 27.3069 29.5882 28.6238C29.7559 29.9406 30.4502 31.1332 31.5125 31.9292C32.425 32.5536 33.4091 33.0663 34.4437 33.4562C35.7792 34.0187 36.9312 34.4979 37.1646 35.375C37.3058 35.883 37.2018 36.4277 36.8833 36.8479C36.3178 37.4064 35.5355 37.6882 34.7437 37.6187C34.5257 37.6181 34.308 37.6042 34.0917 37.5771C32.9135 37.3131 31.9105 36.5454 31.3479 35.4771L31.3521 35.4833Z" fill="#E0E41E"/>
</svg>
