<svg width="50" height="50" viewBox="0 0 50 50" fill="none" xmlns="http://www.w3.org/2000/svg">
<path d="M25.979 5C14.387 5 5 14.408 5 26C5 37.592 14.387 47 25.979 47C37.592 47 47 37.592 47 26C47 14.408 37.592 5 25.979 5ZM40.532 17.6H34.337C33.665 14.975 32.699 12.455 31.439 10.124C35.303 11.447 38.516 14.135 40.532 17.6ZM26 9.284C27.743 11.804 29.108 14.597 30.011 17.6H21.989C22.892 14.597 24.257 11.804 26 9.284ZM9.746 30.2C9.41 28.856 9.2 27.449 9.2 26C9.2 24.551 9.41 23.144 9.746 21.8H16.844C16.676 23.186 16.55 24.572 16.55 26C16.55 27.428 16.676 28.814 16.844 30.2H9.746ZM11.468 34.4H17.663C18.335 37.025 19.301 39.545 20.561 41.876C16.697 40.553 13.484 37.886 11.468 34.4V34.4ZM17.663 17.6H11.468C13.484 14.114 16.697 11.447 20.561 10.124C19.301 12.455 18.335 14.975 17.663 17.6V17.6ZM26 42.716C24.257 40.196 22.892 37.403 21.989 34.4H30.011C29.108 37.403 27.743 40.196 26 42.716ZM30.914 30.2H21.086C20.897 28.814 20.75 27.428 20.75 26C20.75 24.572 20.897 23.165 21.086 21.8H30.914C31.103 23.165 31.25 24.572 31.25 26C31.25 27.428 31.103 28.814 30.914 30.2ZM31.439 41.876C32.699 39.545 33.665 37.025 34.337 34.4H40.532C38.516 37.865 35.303 40.553 31.439 41.876V41.876ZM35.156 30.2C35.324 28.814 35.45 27.428 35.45 26C35.45 24.572 35.324 23.186 35.156 21.8H42.254C42.59 23.144 42.8 24.551 42.8 26C42.8 27.449 42.59 28.856 42.254 30.2H35.156Z" fill="#E0E41E"/>
</svg>
