<svg width="50" height="50" viewBox="0 0 50 50" fill="none" xmlns="http://www.w3.org/2000/svg">
<path d="M18.2128 18.0873C15.9771 19.9869 15.1578 23.4515 17.0883 26.2309C18.8948 28.8318 21.1703 31.1068 23.7706 32.9125C26.5501 34.8426 30.0145 34.0231 31.914 31.7873L31.9351 31.7971C34.3613 32.921 36.9383 33.6913 39.5833 34.0839V39.5833L39.5811 39.5833L39.5752 39.5833C22.9615 39.6069 10.3989 26.8982 10.4167 10.4241V10.4167H15.9154L15.9157 10.4191C16.3083 13.0639 17.0783 15.6386 18.2024 18.0647L18.2128 18.0873ZM39.5811 43.75H41.6667C42.8173 43.75 43.75 42.8172 43.75 41.6666V32.2869C43.75 31.2544 42.9938 30.3777 41.9725 30.2262L40.193 29.9621C37.9423 29.628 35.7511 28.9728 33.6865 28.0163L32.118 27.2898C31.2091 26.8688 30.1292 27.1542 29.547 27.9693L28.837 28.9634C28.2147 29.8347 27.0266 30.1008 26.1472 29.4901C23.9549 27.9677 22.0335 26.0467 20.5105 23.8539C19.8996 22.9745 20.1657 21.7862 21.0372 21.1639L22.0308 20.4543C22.846 19.8721 23.1315 18.7921 22.7103 17.8831L21.983 16.3132C21.0265 14.2487 20.3713 12.0578 20.0372 9.80727L19.773 8.02741C19.6214 7.00617 18.7447 6.25 17.7122 6.25H8.33335C7.18276 6.25 6.25002 7.18274 6.25002 8.33333V10.4196C6.22977 29.1831 20.6463 43.7768 39.5811 43.75Z" fill="#E0E41E"/>
</svg>
