<svg width="50" height="50" viewBox="0 0 50 50" fill="none" xmlns="http://www.w3.org/2000/svg">
<path fill-rule="evenodd" clip-rule="evenodd" d="M18.8603 5H31.1397C42.3465 5 45 7.65349 45 18.8603V31.1397C45 42.3465 42.3465 45 31.1397 45H18.8603C7.65349 45 5 42.3465 5 31.1397V18.8603C5 7.65349 7.65349 5 18.8603 5ZM39.294 17.2391C39.5164 16.5401 39.294 16.0318 38.3091 16.0318H35.0366C34.2105 16.0318 33.8292 16.4766 33.6068 16.9532C33.6068 16.9532 31.9229 21.02 29.5717 23.6571C28.8092 24.4197 28.4597 24.6738 28.0467 24.6738C27.8242 24.6738 27.5383 24.4197 27.5383 23.7207V17.2073C27.5383 16.3813 27.2841 16 26.5851 16H21.438C20.9297 16 20.6119 16.3813 20.6119 16.7625C20.6119 17.5568 21.7875 17.7475 21.9146 19.9715V24.8009C21.9146 25.8494 21.724 26.04 21.3109 26.04C20.1989 26.04 17.4983 21.9414 15.8779 17.2709C15.5601 16.3495 15.2424 16 14.4163 16H11.112C10.1589 16 10 16.4448 10 16.9214C10 17.7792 11.112 22.1003 15.1789 27.8193C17.8795 31.7273 21.724 33.8243 25.1872 33.8243C27.2841 33.8243 27.5383 33.3477 27.5383 32.5534V29.5985C27.5383 28.6454 27.7289 28.4865 28.3962 28.4865C28.8727 28.4865 29.7306 28.7407 31.6687 30.6153C33.8928 32.8393 34.274 33.856 35.5131 33.856H38.7857C39.7389 33.856 40.1837 33.3794 39.9295 32.458C39.6435 31.5366 38.5633 30.2022 37.1653 28.6136C36.4028 27.724 35.259 26.739 34.9095 26.2625C34.4329 25.627 34.56 25.3728 34.9095 24.8009C34.8777 24.8009 38.881 19.1455 39.294 17.2391Z" fill="#E0E41E"/>
</svg>
